<svg width="22" height="14" viewBox="0 0 22 14" fill="none" xmlns="http://www.w3.org/2000/svg">
<path d="M18.8383 1.53259L17.1974 6.00806L17.0209 6.48941L7.13463 5.13189L6.21586 1.96859L6.21586 1.96859C6.15251 1.75049 6.31612 1.53259 6.54325 1.53259H18.8383ZM16.0571 10.3962H17.7099L18.1242 11.1126C18.2457 11.3226 18.3154 11.5661 18.3154 11.828C18.3154 12.6188 17.6743 13.2599 16.8836 13.2599C16.0928 13.2599 15.4518 12.6188 15.4518 11.828C15.4518 11.5661 15.5214 11.3226 15.6429 11.1126L16.0571 10.3962ZM2.72772 10.3962H3.55417L3.9684 11.1126C4.08984 11.3226 4.15953 11.5661 4.15953 11.828C4.15953 12.6188 3.51848 13.2599 2.72772 13.2599C1.93696 13.2599 1.2959 12.6188 1.2959 11.828C1.2959 11.0373 1.93694 10.3962 2.72772 10.3962Z" stroke="#111111" stroke-width="1.5"/>
</svg>
